<?xml version="1.0" encoding="UTF-8" standalone="no"?>
<!-- Created with Inkscape (http://www.inkscape.org/) -->

<svg
   xmlns:dc="http://purl.org/dc/elements/1.1/"
   xmlns:cc="http://creativecommons.org/ns#"
   xmlns:rdf="http://www.w3.org/1999/02/22-rdf-syntax-ns#"
   xmlns:svg="http://www.w3.org/2000/svg"
   xmlns="http://www.w3.org/2000/svg"
   xmlns:sodipodi="http://sodipodi.sourceforge.net/DTD/sodipodi-0.dtd"
   xmlns:inkscape="http://www.inkscape.org/namespaces/inkscape"
   width="974.40942"
   height="230.31496"
   id="svg2"
   version="1.1"
   inkscape:version="0.48.3.1 r9886"
   sodipodi:docname="front.svg"
   inkscape:export-filename="C:\Users\drk\Dropbox\projects\amplifier\physical_layout\front.png"
   inkscape:export-xdpi="90"
   inkscape:export-ydpi="90">
  <defs
     id="defs4" />
  <sodipodi:namedview
     id="base"
     pagecolor="#ffffff"
     bordercolor="#666666"
     borderopacity="1.0"
     inkscape:pageopacity="0.0"
     inkscape:pageshadow="2"
     inkscape:zoom="0.98999998"
     inkscape:cx="474.46466"
     inkscape:cy="163.59269"
     inkscape:document-units="mm"
     inkscape:current-layer="layer1"
     showgrid="false"
     inkscape:window-width="1366"
     inkscape:window-height="706"
     inkscape:window-x="-8"
     inkscape:window-y="-8"
     inkscape:window-maximized="1"
     units="mm"
     showguides="true"
     inkscape:guide-bbox="true">
    <inkscape:grid
       type="xygrid"
       id="grid2987"
       empspacing="5"
       visible="true"
       enabled="true"
       snapvisiblegridlinesonly="false"
       units="mm" />
  </sodipodi:namedview>
  <metadata
     id="metadata7">
    <rdf:RDF>
      <cc:Work
         rdf:about="">
        <dc:format>image/svg+xml</dc:format>
        <dc:type
           rdf:resource="http://purl.org/dc/dcmitype/StillImage" />
        <dc:title></dc:title>
      </cc:Work>
    </rdf:RDF>
  </metadata>
  <g
     inkscape:label="Layer 1"
     inkscape:groupmode="layer"
     id="layer1"
     transform="translate(0,-822.04593)">
    <path
       style="fill:none;stroke:#000000;stroke-width:2.08129668px;stroke-linecap:butt;stroke-linejoin:miter;stroke-opacity:0.43386242"
       d="m 1.0401912,927.30403 972.3290688,0"
       id="path2989"
       inkscape:connector-curvature="0" />
    <rect
       style="fill:none;stroke:#000000;stroke-width:1.08673286;stroke-miterlimit:4;stroke-opacity:1;stroke-dasharray:none;stroke-dashoffset:0"
       id="rect2985"
       width="973.32275"
       height="229.22823"
       x="0.54336643"
       y="822.58929" />
    <path
       sodipodi:type="arc"
       style="fill:none;stroke:#000000;stroke-width:1.02755904;stroke-miterlimit:4;stroke-opacity:1;stroke-dasharray:none;stroke-dashoffset:0"
       id="path2991"
       sodipodi:cx="130"
       sodipodi:cy="70.314957"
       sodipodi:rx="15"
       sodipodi:ry="15"
       d="m 145,70.314957 c 0,8.284271 -6.71573,15 -15,15 -8.28427,0 -15,-6.715729 -15,-15 0,-8.284272 6.71573,-15 15,-15 8.28427,0 15,6.715728 15,15 z"
       transform="matrix(1.4845832,0,0,1.4845832,-109.7281,823.95673)" />
    <path
       transform="matrix(0.79939094,0,0,0.79939094,323.04768,872.136)"
       d="m 145,70.314957 c 0,8.284271 -6.71573,15 -15,15 -8.28427,0 -15,-6.715729 -15,-15 0,-8.284272 6.71573,-15 15,-15 8.28427,0 15,6.715728 15,15 z"
       sodipodi:ry="15"
       sodipodi:rx="15"
       sodipodi:cy="70.314957"
       sodipodi:cx="130"
       id="path2993"
       style="fill:none;stroke:#000000;stroke-width:1.02755904;stroke-miterlimit:4;stroke-opacity:1;stroke-dasharray:none;stroke-dashoffset:0"
       sodipodi:type="arc" />
    <path
       sodipodi:type="arc"
       style="fill:none;stroke:#000000;stroke-width:1.02755904;stroke-miterlimit:4;stroke-opacity:1;stroke-dasharray:none;stroke-dashoffset:0"
       id="path2995"
       sodipodi:cx="130"
       sodipodi:cy="70.314957"
       sodipodi:rx="15"
       sodipodi:ry="15"
       d="m 145,70.314957 c 0,8.284271 -6.71573,15 -15,15 -8.28427,0 -15,-6.715729 -15,-15 0,-8.284272 6.71573,-15 15,-15 8.28427,0 15,6.715728 15,15 z"
       transform="matrix(0.79939094,0,0,0.79939094,75.016186,818.98639)" />
    <path
       transform="matrix(0.79939094,0,0,0.79939094,75.016186,925.28561)"
       d="m 145,70.314957 c 0,8.284271 -6.71573,15 -15,15 -8.28427,0 -15,-6.715729 -15,-15 0,-8.284272 6.71573,-15 15,-15 8.28427,0 15,6.715728 15,15 z"
       sodipodi:ry="15"
       sodipodi:rx="15"
       sodipodi:cy="70.314957"
       sodipodi:cx="130"
       id="path2997"
       style="fill:none;stroke:#000000;stroke-width:1.02755904;stroke-miterlimit:4;stroke-opacity:1;stroke-dasharray:none;stroke-dashoffset:0"
       sodipodi:type="arc" />
    <path
       transform="matrix(0.68519223,0,0,0.68519223,212.10611,844.73281)"
       d="m 145,70.314957 c 0,8.284271 -6.71573,15 -15,15 -8.28427,0 -15,-6.715729 -15,-15 0,-8.284272 6.71573,-15 15,-15 8.28427,0 15,6.715728 15,15 z"
       sodipodi:ry="15"
       sodipodi:rx="15"
       sodipodi:cy="70.314957"
       sodipodi:cx="130"
       id="path3001"
       style="fill:none;stroke:#000000;stroke-width:1.02755904;stroke-miterlimit:4;stroke-opacity:1;stroke-dasharray:none;stroke-dashoffset:0"
       sodipodi:type="arc" />
    <path
       sodipodi:type="arc"
       style="fill:none;stroke:#000000;stroke-width:1.02755904;stroke-miterlimit:4;stroke-opacity:1;stroke-dasharray:none;stroke-dashoffset:0"
       id="path3003"
       sodipodi:cx="130"
       sodipodi:cy="70.314957"
       sodipodi:rx="15"
       sodipodi:ry="15"
       d="m 145,70.314957 c 0,8.284271 -6.71573,15 -15,15 -8.28427,0 -15,-6.715729 -15,-15 0,-8.284272 6.71573,-15 15,-15 8.28427,0 15,6.715728 15,15 z"
       transform="matrix(0.68519223,0,0,0.68519223,212.10611,915.59895)" />
    <path
       sodipodi:type="arc"
       style="fill:none;stroke:#000000;stroke-width:1.02755904;stroke-miterlimit:4;stroke-opacity:1;stroke-dasharray:none;stroke-dashoffset:0"
       id="path3005"
       sodipodi:cx="130"
       sodipodi:cy="70.314957"
       sodipodi:rx="15"
       sodipodi:ry="15"
       d="m 145,70.314957 c 0,8.284271 -6.71573,15 -15,15 -8.28427,0 -15,-6.715729 -15,-15 0,-8.284272 6.71573,-15 15,-15 8.28427,0 15,6.715728 15,15 z"
       transform="matrix(0.79939094,0,0,0.79939094,447.06343,872.136)" />
    <path
       transform="matrix(0.79939094,0,0,0.79939094,571.07918,872.136)"
       d="m 145,70.314957 c 0,8.284271 -6.71573,15 -15,15 -8.28427,0 -15,-6.715729 -15,-15 0,-8.284272 6.71573,-15 15,-15 8.28427,0 15,6.715728 15,15 z"
       sodipodi:ry="15"
       sodipodi:rx="15"
       sodipodi:cy="70.314957"
       sodipodi:cx="130"
       id="path3007"
       style="fill:none;stroke:#000000;stroke-width:1.02755904;stroke-miterlimit:4;stroke-opacity:1;stroke-dasharray:none;stroke-dashoffset:0"
       sodipodi:type="arc" />
    <path
       sodipodi:type="arc"
       style="fill:none;stroke:#000000;stroke-width:1.02755904;stroke-miterlimit:4;stroke-opacity:1;stroke-dasharray:none;stroke-dashoffset:0"
       id="path3009"
       sodipodi:cx="130"
       sodipodi:cy="70.314957"
       sodipodi:rx="15"
       sodipodi:ry="15"
       d="m 145,70.314957 c 0,8.284271 -6.71573,15 -15,15 -8.28427,0 -15,-6.715729 -15,-15 0,-8.284272 6.71573,-15 15,-15 8.28427,0 15,6.715728 15,15 z"
       transform="matrix(0.79939094,0,0,0.79939094,695.09493,872.136)" />
    <path
       transform="matrix(0.68519223,0,0,0.68519223,807.3817,880.16588)"
       d="m 145,70.314957 c 0,8.284271 -6.71573,15 -15,15 -8.28427,0 -15,-6.715729 -15,-15 0,-8.284272 6.71573,-15 15,-15 8.28427,0 15,6.715728 15,15 z"
       sodipodi:ry="15"
       sodipodi:rx="15"
       sodipodi:cy="70.314957"
       sodipodi:cx="130"
       id="path3011"
       style="fill:none;stroke:#000000;stroke-width:1.02755904;stroke-miterlimit:4;stroke-opacity:1;stroke-dasharray:none;stroke-dashoffset:0"
       sodipodi:type="arc" />
    <text
       xml:space="preserve"
       style="font-size:22px;font-style:normal;font-weight:normal;line-height:125%;letter-spacing:0px;word-spacing:0px;fill:#000000;fill-opacity:1;stroke:none;font-family:Sans"
       x="72.853424"
       y="898.08307"
       id="text3015"
       sodipodi:linespacing="125%"><tspan
         sodipodi:role="line"
         id="tspan3017"
         x="72.853424"
         y="898.08307">In</tspan></text>
    <text
       xml:space="preserve"
       style="font-size:22px;font-style:normal;font-weight:normal;line-height:125%;letter-spacing:0px;word-spacing:0px;fill:#000000;fill-opacity:1;stroke:none;font-family:Sans"
       x="154.27785"
       y="857.37085"
       id="text3019"
       sodipodi:linespacing="125%"><tspan
         sodipodi:role="line"
         id="tspan3021"
         x="154.27785"
         y="857.37085">Gain1</tspan></text>
    <text
       xml:space="preserve"
       style="font-size:22px;font-style:normal;font-weight:normal;line-height:125%;letter-spacing:0px;word-spacing:0px;fill:#000000;fill-opacity:1;stroke:none;font-family:Sans"
       x="148.56386"
       y="963.07971"
       id="text3023"
       sodipodi:linespacing="125%"><tspan
         sodipodi:role="line"
         id="tspan3025"
         x="148.56386"
         y="963.07971">Gain2</tspan></text>
    <text
       xml:space="preserve"
       style="font-size:22px;font-style:normal;font-weight:normal;line-height:125%;letter-spacing:0px;word-spacing:0px;fill:#000000;fill-opacity:1;stroke:none;font-family:Sans"
       x="268.55771"
       y="846.65717"
       id="text3027"
       sodipodi:linespacing="125%"><tspan
         sodipodi:role="line"
         id="tspan3029"
         x="268.55771"
         y="846.65717">Channel </tspan><tspan
         sodipodi:role="line"
         x="268.55771"
         y="874.15717"
         id="tspan3031">Switch</tspan></text>
    <text
       xml:space="preserve"
       style="font-size:22px;font-style:normal;font-weight:normal;line-height:125%;letter-spacing:0px;word-spacing:0px;fill:#000000;fill-opacity:1;stroke:none;font-family:Sans"
       x="267.84348"
       y="997.36371"
       id="text3033"
       sodipodi:linespacing="125%"><tspan
         sodipodi:role="line"
         id="tspan3035"
         x="267.84348"
         y="997.36371">Channel</tspan><tspan
         sodipodi:role="line"
         x="267.84348"
         y="1024.8636"
         id="tspan3037">LED</tspan></text>
    <text
       xml:space="preserve"
       style="font-size:22px;font-style:normal;font-weight:normal;line-height:125%;letter-spacing:0px;word-spacing:0px;fill:#000000;fill-opacity:1;stroke:none;font-family:Sans"
       x="408.55057"
       y="900.94006"
       id="text3807"
       sodipodi:linespacing="125%"><tspan
         sodipodi:role="line"
         id="tspan3809"
         x="408.55057"
         y="900.94006">Bass</tspan></text>
    <text
       xml:space="preserve"
       style="font-size:22px;font-style:normal;font-weight:normal;line-height:125%;letter-spacing:0px;word-spacing:0px;fill:#000000;fill-opacity:1;stroke:none;font-family:Sans"
       x="529.25873"
       y="898.7973"
       id="text3811"
       sodipodi:linespacing="125%"><tspan
         sodipodi:role="line"
         id="tspan3813"
         x="529.25873"
         y="898.7973">Middle</tspan></text>
    <text
       xml:space="preserve"
       style="font-size:22px;font-style:normal;font-weight:normal;line-height:125%;letter-spacing:0px;word-spacing:0px;fill:#000000;fill-opacity:1;stroke:none;font-family:Sans"
       x="660.68054"
       y="900.22577"
       id="text3815"
       sodipodi:linespacing="125%"><tspan
         sodipodi:role="line"
         id="tspan3817"
         x="660.68054"
         y="900.22577">High</tspan></text>
    <text
       xml:space="preserve"
       style="font-size:22px;font-style:normal;font-weight:normal;line-height:125%;letter-spacing:0px;word-spacing:0px;fill:#000000;fill-opacity:1;stroke:none;font-family:Sans"
       x="761.38971"
       y="903.08282"
       id="text3819"
       sodipodi:linespacing="125%"><tspan
         sodipodi:role="line"
         id="tspan3821"
         x="761.38971"
         y="903.08282">Volume</tspan></text>
    <text
       xml:space="preserve"
       style="font-size:22px;font-style:normal;font-weight:normal;line-height:125%;letter-spacing:0px;word-spacing:0px;fill:#000000;fill-opacity:1;stroke:none;font-family:Sans"
       x="879.24084"
       y="903.79706"
       id="text3823"
       sodipodi:linespacing="125%"><tspan
         sodipodi:role="line"
         id="tspan3825"
         x="879.24084"
         y="903.79706">LED</tspan></text>
  </g>
</svg>
